<svg width="20" height="20" viewBox="0 0 20 20" fill="none" xmlns="http://www.w3.org/2000/svg">
<circle cx="10" cy="10" r="9.5" fill="black" stroke="#DD9C11"/>
<circle cx="10" cy="10" r="8" fill="#DD9C11"/>
<path d="M10.552 14.12C9.976 14.12 9.464 14.04 9.016 13.88C8.568 13.72 8.14 13.456 7.732 13.088C7.644 13.024 7.576 12.948 7.528 12.86C7.488 12.764 7.468 12.668 7.468 12.572C7.468 12.42 7.524 12.284 7.636 12.164C7.748 12.044 7.888 11.984 8.056 11.984C8.184 11.984 8.304 12.028 8.416 12.116C8.72 12.396 9.036 12.608 9.364 12.752C9.7 12.896 10.092 12.968 10.54 12.968C10.86 12.968 11.152 12.916 11.416 12.812C11.688 12.708 11.904 12.568 12.064 12.392C12.224 12.216 12.304 12.012 12.304 11.78C12.304 11.492 12.22 11.256 12.052 11.072C11.892 10.88 11.656 10.724 11.344 10.604C11.04 10.476 10.672 10.368 10.24 10.28C9.84 10.208 9.48 10.108 9.16 9.98C8.848 9.852 8.58 9.692 8.356 9.5C8.132 9.3 7.96 9.064 7.84 8.792C7.72 8.52 7.66 8.204 7.66 7.844C7.66 7.356 7.788 6.936 8.044 6.584C8.3 6.232 8.648 5.96 9.088 5.768C9.528 5.576 10.024 5.48 10.576 5.48C11.08 5.48 11.552 5.56 11.992 5.72C12.432 5.872 12.788 6.08 13.06 6.344C13.252 6.512 13.348 6.692 13.348 6.884C13.348 7.028 13.288 7.164 13.168 7.292C13.056 7.412 12.924 7.472 12.772 7.472C12.66 7.472 12.564 7.44 12.484 7.376C12.356 7.24 12.184 7.12 11.968 7.016C11.752 6.904 11.52 6.812 11.272 6.74C11.032 6.668 10.8 6.632 10.576 6.632C10.216 6.632 9.908 6.684 9.652 6.788C9.396 6.884 9.2 7.02 9.064 7.196C8.928 7.364 8.86 7.564 8.86 7.796C8.86 8.068 8.936 8.292 9.088 8.468C9.248 8.644 9.468 8.788 9.748 8.9C10.028 9.004 10.348 9.1 10.708 9.188C11.148 9.284 11.54 9.392 11.884 9.512C12.236 9.632 12.532 9.788 12.772 9.98C13.012 10.164 13.196 10.396 13.324 10.676C13.452 10.956 13.516 11.304 13.516 11.72C13.516 12.2 13.38 12.62 13.108 12.98C12.836 13.34 12.476 13.62 12.028 13.82C11.588 14.02 11.096 14.12 10.552 14.12ZM11.248 14.996C11.248 15.164 11.188 15.308 11.068 15.428C10.956 15.548 10.812 15.608 10.636 15.608C10.468 15.608 10.328 15.548 10.216 15.428C10.104 15.308 10.048 15.164 10.048 14.996V4.94C10.048 4.764 10.104 4.62 10.216 4.508C10.336 4.388 10.484 4.328 10.66 4.328C10.828 4.328 10.968 4.388 11.08 4.508C11.192 4.62 11.248 4.764 11.248 4.94V14.996Z" fill="black"/>
</svg>
