<?xml version="1.0" encoding="UTF-8" standalone="no"?>
<svg
   width="20"
   height="19"
   viewBox="0 0 20 19"
   fill="none"
   version="1.1"
   id="svg1"
   sodipodi:docname="day_icon.svg"
   inkscape:version="1.3.2 (091e20e, 2023-11-25, custom)"
   xmlns:inkscape="http://www.inkscape.org/namespaces/inkscape"
   xmlns:sodipodi="http://sodipodi.sourceforge.net/DTD/sodipodi-0.dtd"
   xmlns="http://www.w3.org/2000/svg"
   xmlns:svg="http://www.w3.org/2000/svg">
  <defs
     id="defs1" />
  <sodipodi:namedview
     id="namedview1"
     pagecolor="#505050"
     bordercolor="#ffffff"
     borderopacity="1"
     inkscape:showpageshadow="0"
     inkscape:pageopacity="0"
     inkscape:pagecheckerboard="1"
     inkscape:deskcolor="#505050"
     inkscape:zoom="62.789474"
     inkscape:cx="10.001676"
     inkscape:cy="9.5"
     inkscape:window-width="2560"
     inkscape:window-height="1369"
     inkscape:window-x="2552"
     inkscape:window-y="90"
     inkscape:window-maximized="1"
     inkscape:current-layer="svg1" />
  <path
     d="M9.99998 4.50016C10.8156 4.5 11.6211 4.68125 12.3581 5.03081C13.0951 5.38036 13.7451 5.88946 14.261 6.52122C14.777 7.15298 15.1459 7.89159 15.3412 8.68355C15.5364 9.4755 15.5531 10.301 15.39 11.1002C15.3477 11.3072 15.2352 11.4933 15.0715 11.6269C14.9078 11.7606 14.703 11.8335 14.4916 11.8335H5.50831C5.29699 11.8335 5.09215 11.7606 4.92845 11.6269C4.76475 11.4933 4.65224 11.3072 4.60998 11.1002C4.44685 10.301 4.46351 9.4755 4.65877 8.68355C4.85403 7.89159 5.22299 7.15298 5.73893 6.52122C6.25487 5.88946 6.90487 5.38036 7.64184 5.03081C8.37881 4.68125 9.18431 4.5 9.99998 4.50016ZM18.25 9.0835C18.4931 9.0835 18.7263 9.18007 18.8982 9.35198C19.0701 9.52389 19.1666 9.75705 19.1666 10.0002C19.1666 10.2433 19.0701 10.4764 18.8982 10.6483C18.7263 10.8203 18.4931 10.9168 18.25 10.9168H17.3333C17.0902 10.9168 16.857 10.8203 16.6851 10.6483C16.5132 10.4764 16.4166 10.2433 16.4166 10.0002C16.4166 9.75705 16.5132 9.52389 16.6851 9.35198C16.857 9.18007 17.0902 9.0835 17.3333 9.0835H18.25ZM2.66665 9.0835C2.90976 9.0835 3.14292 9.18007 3.31483 9.35198C3.48674 9.52389 3.58331 9.75705 3.58331 10.0002C3.58331 10.2433 3.48674 10.4764 3.31483 10.6483C3.14292 10.8203 2.90976 10.9168 2.66665 10.9168H1.74998C1.50686 10.9168 1.27371 10.8203 1.1018 10.6483C0.92989 10.4764 0.833313 10.2433 0.833313 10.0002C0.833313 9.75705 0.92989 9.52389 1.1018 9.35198C1.27371 9.18007 1.50686 9.0835 1.74998 9.0835H2.66665ZM16.4817 3.51933C16.6536 3.69123 16.7501 3.92435 16.7501 4.16741C16.7501 4.41048 16.6536 4.6436 16.4817 4.8155L15.8336 5.46358C15.7491 5.55113 15.6479 5.62096 15.5361 5.66901C15.4243 5.71705 15.304 5.74233 15.1823 5.74339C15.0605 5.74445 14.9398 5.72126 14.8272 5.67517C14.7145 5.62907 14.6122 5.56101 14.5261 5.47494C14.44 5.38887 14.372 5.28653 14.3259 5.17387C14.2798 5.06122 14.2566 4.94051 14.2577 4.8188C14.2587 4.69708 14.284 4.5768 14.3321 4.46496C14.3801 4.35312 14.4499 4.25197 14.5375 4.16741L15.1856 3.51933C15.3575 3.34748 15.5906 3.25094 15.8336 3.25094C16.0767 3.25094 16.3098 3.34748 16.4817 3.51933ZM4.8144 3.51933L5.46248 4.16741C5.62533 4.34108 5.71423 4.57128 5.71036 4.80933C5.7065 5.04737 5.61017 5.27457 5.44177 5.44285C5.27337 5.61114 5.0461 5.7073 4.80805 5.711C4.57001 5.7147 4.33986 5.62564 4.16631 5.46266L3.51823 4.81458C3.42869 4.7305 3.35696 4.62928 3.30731 4.51693C3.25765 4.40459 3.23108 4.28341 3.22918 4.16059C3.22727 4.03778 3.25006 3.91584 3.29621 3.802C3.34235 3.68817 3.4109 3.58477 3.49778 3.49795C3.58467 3.41113 3.68811 3.34265 3.80198 3.29659C3.91584 3.25053 4.0378 3.22782 4.16062 3.22981C4.28343 3.23181 4.40459 3.25846 4.5169 3.3082C4.62921 3.35793 4.73038 3.42973 4.8144 3.51933ZM9.99998 0.833496C10.2431 0.833496 10.4763 0.930073 10.6482 1.10198C10.8201 1.27389 10.9166 1.50705 10.9166 1.75016V2.66683C10.9166 2.90994 10.8201 3.1431 10.6482 3.31501C10.4763 3.48692 10.2431 3.5835 9.99998 3.5835C9.75686 3.5835 9.52371 3.48692 9.3518 3.31501C9.17989 3.1431 9.08331 2.90994 9.08331 2.66683V1.75016C9.08331 1.50705 9.17989 1.27389 9.3518 1.10198C9.52371 0.930073 9.75686 0.833496 9.99998 0.833496ZM2.66665 12.7502C2.42353 12.7502 2.19037 12.8467 2.01847 13.0186C1.84656 13.1906 1.74998 13.4237 1.74998 13.6668C1.74998 13.9099 1.84656 14.1431 2.01847 14.315C2.19037 14.4869 2.42353 14.5835 2.66665 14.5835H17.3333C17.5764 14.5835 17.8096 14.4869 17.9815 14.315C18.1534 14.1431 18.25 13.9099 18.25 13.6668C18.25 13.4237 18.1534 13.1906 17.9815 13.0186C17.8096 12.8467 17.5764 12.7502 17.3333 12.7502H2.66665ZM5.41665 16.4168C5.17353 16.4168 4.94037 16.5134 4.76847 16.6853C4.59656 16.8572 4.49998 17.0904 4.49998 17.3335C4.49998 17.5766 4.59656 17.8098 4.76847 17.9817C4.94037 18.1536 5.17353 18.2502 5.41665 18.2502H14.5833C14.8264 18.2502 15.0596 18.1536 15.2315 17.9817C15.4034 17.8098 15.5 17.5766 15.5 17.3335C15.5 17.0904 15.4034 16.8572 15.2315 16.6853C15.0596 16.5134 14.8264 16.4168 14.5833 16.4168H5.41665Z"
     fill="#AD7129"
     id="path1" />
</svg>
